# xmcd
#
# Track frame offsets:
#	150
#	16880
#	30127
#	42097
#	52647
#	64772
#	74587
#	87640
#	97250
#	106445
#	118267
#	130485
#
# Disc length: 1923 seconds
#
# Revision: 0
# Processed by: cddbd v1.5.2PL0 Copyright (c) Steve Scherf et al.
# Submitted via: EZCDAudioConverter 2.1.7.1
#
DISCID=a307810c
DTITLE=Nino Nardini and Roger Roger - Jungle Obsession
DYEAR=1971
DGENRE=
TTITLE0=Jungle Obsession
TTITLE1=Murmuring Leaves
TTITLE2=Mowgli
TTITLE3=Bagheera
TTITLE4=Creeping Danger
TTITLE5=Malaysia
TTITLE6=Jungle Spell
TTITLE7=The White Snake
TTITLE8=Shere Khan
TTITLE9=Tropical Call
TTITLE10=Bali Girl
TTITLE11=Jungle Mistery
EXTD=
EXTT0=
EXTT1=
EXTT2=
EXTT3=
EXTT4=
EXTT5=
EXTT6=
EXTT7=
EXTT8=
EXTT9=
EXTT10=
EXTT11=
PLAYORDER=
